<mxfile host="app.diagrams.net" agent="Mozilla/5.0 (Windows NT 10.0; Win64; x64) AppleWebKit/537.36 (KHTML, like Gecko) Chrome/130.0.0.0 Safari/537.36" version="24.9.1">
  <diagram name="Trang-1" id="_ZgqYXp_hxllRHMwkKHh">
    <mxGraphModel dx="1406" dy="939" grid="1" gridSize="10" guides="1" tooltips="1" connect="1" arrows="1" fold="1" page="0" pageScale="1" pageWidth="827" pageHeight="1169" math="0" shadow="0">
      <root>
        <mxCell id="0" />
        <mxCell id="1" parent="0" />
        <mxCell id="qNfTHY0BZm8D7WxXNAAQ-9" style="edgeStyle=orthogonalEdgeStyle;rounded=0;orthogonalLoop=1;jettySize=auto;html=1;exitX=1;exitY=0.5;exitDx=0;exitDy=0;entryX=0;entryY=0.5;entryDx=0;entryDy=0;endArrow=none;endFill=0;" edge="1" parent="1" source="4JWdzelT5IVzxTuJcsom-1" target="4JWdzelT5IVzxTuJcsom-3">
          <mxGeometry relative="1" as="geometry" />
        </mxCell>
        <mxCell id="qNfTHY0BZm8D7WxXNAAQ-11" value="1" style="edgeLabel;html=1;align=center;verticalAlign=middle;resizable=0;points=[];" vertex="1" connectable="0" parent="qNfTHY0BZm8D7WxXNAAQ-9">
          <mxGeometry x="0.055" y="1" relative="1" as="geometry">
            <mxPoint as="offset" />
          </mxGeometry>
        </mxCell>
        <mxCell id="qNfTHY0BZm8D7WxXNAAQ-13" style="edgeStyle=orthogonalEdgeStyle;rounded=0;orthogonalLoop=1;jettySize=auto;html=1;exitX=0;exitY=0.5;exitDx=0;exitDy=0;entryX=1;entryY=0.5;entryDx=0;entryDy=0;endArrow=none;endFill=0;" edge="1" parent="1" source="4JWdzelT5IVzxTuJcsom-1" target="4JWdzelT5IVzxTuJcsom-10">
          <mxGeometry relative="1" as="geometry" />
        </mxCell>
        <mxCell id="qNfTHY0BZm8D7WxXNAAQ-14" style="rounded=0;orthogonalLoop=1;jettySize=auto;html=1;exitX=0.5;exitY=0;exitDx=0;exitDy=0;entryX=0.5;entryY=1;entryDx=0;entryDy=0;endArrow=none;endFill=0;" edge="1" parent="1" source="4JWdzelT5IVzxTuJcsom-1" target="4JWdzelT5IVzxTuJcsom-9">
          <mxGeometry relative="1" as="geometry" />
        </mxCell>
        <mxCell id="qNfTHY0BZm8D7WxXNAAQ-15" style="edgeStyle=orthogonalEdgeStyle;rounded=0;orthogonalLoop=1;jettySize=auto;html=1;exitX=0.5;exitY=1;exitDx=0;exitDy=0;entryX=0.5;entryY=0;entryDx=0;entryDy=0;endArrow=none;endFill=0;" edge="1" parent="1" source="4JWdzelT5IVzxTuJcsom-1" target="4JWdzelT5IVzxTuJcsom-11">
          <mxGeometry relative="1" as="geometry" />
        </mxCell>
        <mxCell id="4JWdzelT5IVzxTuJcsom-1" value="Department" style="rounded=0;whiteSpace=wrap;html=1;" parent="1" vertex="1">
          <mxGeometry x="80" y="170" width="120" height="60" as="geometry" />
        </mxCell>
        <mxCell id="qNfTHY0BZm8D7WxXNAAQ-1" style="edgeStyle=orthogonalEdgeStyle;rounded=0;orthogonalLoop=1;jettySize=auto;html=1;exitX=0.5;exitY=0;exitDx=0;exitDy=0;endArrow=none;endFill=0;" edge="1" parent="1" source="4JWdzelT5IVzxTuJcsom-2" target="4JWdzelT5IVzxTuJcsom-14">
          <mxGeometry relative="1" as="geometry" />
        </mxCell>
        <mxCell id="qNfTHY0BZm8D7WxXNAAQ-4" style="rounded=0;orthogonalLoop=1;jettySize=auto;html=1;exitX=0.75;exitY=0;exitDx=0;exitDy=0;entryX=0;entryY=0.5;entryDx=0;entryDy=0;endArrow=none;endFill=0;" edge="1" parent="1" source="4JWdzelT5IVzxTuJcsom-2" target="4JWdzelT5IVzxTuJcsom-19">
          <mxGeometry relative="1" as="geometry" />
        </mxCell>
        <mxCell id="qNfTHY0BZm8D7WxXNAAQ-5" style="rounded=0;orthogonalLoop=1;jettySize=auto;html=1;exitX=1;exitY=0.5;exitDx=0;exitDy=0;entryX=0;entryY=0.5;entryDx=0;entryDy=0;endArrow=none;endFill=0;" edge="1" parent="1" source="4JWdzelT5IVzxTuJcsom-2" target="4JWdzelT5IVzxTuJcsom-18">
          <mxGeometry relative="1" as="geometry" />
        </mxCell>
        <mxCell id="qNfTHY0BZm8D7WxXNAAQ-6" style="rounded=0;orthogonalLoop=1;jettySize=auto;html=1;exitX=1;exitY=0.75;exitDx=0;exitDy=0;entryX=0;entryY=0.5;entryDx=0;entryDy=0;endArrow=none;endFill=0;" edge="1" parent="1" source="4JWdzelT5IVzxTuJcsom-2" target="4JWdzelT5IVzxTuJcsom-17">
          <mxGeometry relative="1" as="geometry" />
        </mxCell>
        <mxCell id="qNfTHY0BZm8D7WxXNAAQ-7" style="rounded=0;orthogonalLoop=1;jettySize=auto;html=1;exitX=1;exitY=1;exitDx=0;exitDy=0;entryX=0;entryY=0.5;entryDx=0;entryDy=0;endArrow=none;endFill=0;" edge="1" parent="1" source="4JWdzelT5IVzxTuJcsom-2" target="4JWdzelT5IVzxTuJcsom-16">
          <mxGeometry relative="1" as="geometry" />
        </mxCell>
        <mxCell id="4JWdzelT5IVzxTuJcsom-2" value="Employee" style="rounded=0;whiteSpace=wrap;html=1;" parent="1" vertex="1">
          <mxGeometry x="620" y="170" width="120" height="60" as="geometry" />
        </mxCell>
        <mxCell id="qNfTHY0BZm8D7WxXNAAQ-10" style="edgeStyle=orthogonalEdgeStyle;rounded=0;orthogonalLoop=1;jettySize=auto;html=1;exitX=1;exitY=0.5;exitDx=0;exitDy=0;" edge="1" parent="1" source="4JWdzelT5IVzxTuJcsom-3" target="4JWdzelT5IVzxTuJcsom-2">
          <mxGeometry relative="1" as="geometry" />
        </mxCell>
        <mxCell id="qNfTHY0BZm8D7WxXNAAQ-12" value="N" style="edgeLabel;html=1;align=center;verticalAlign=middle;resizable=0;points=[];" vertex="1" connectable="0" parent="qNfTHY0BZm8D7WxXNAAQ-10">
          <mxGeometry x="0.1156" relative="1" as="geometry">
            <mxPoint as="offset" />
          </mxGeometry>
        </mxCell>
        <mxCell id="4JWdzelT5IVzxTuJcsom-3" value="CÃ³" style="rhombus;whiteSpace=wrap;html=1;" parent="1" vertex="1">
          <mxGeometry x="360" y="160" width="80" height="80" as="geometry" />
        </mxCell>
        <mxCell id="4JWdzelT5IVzxTuJcsom-9" value="&lt;u&gt;departmentId&lt;/u&gt;" style="ellipse;whiteSpace=wrap;html=1;" parent="1" vertex="1">
          <mxGeometry x="80" y="20" width="120" height="80" as="geometry" />
        </mxCell>
        <mxCell id="4JWdzelT5IVzxTuJcsom-10" value="name" style="ellipse;whiteSpace=wrap;html=1;" parent="1" vertex="1">
          <mxGeometry x="-140" y="160" width="120" height="80" as="geometry" />
        </mxCell>
        <mxCell id="4JWdzelT5IVzxTuJcsom-11" value="status" style="ellipse;whiteSpace=wrap;html=1;" parent="1" vertex="1">
          <mxGeometry x="80" y="310" width="120" height="80" as="geometry" />
        </mxCell>
        <mxCell id="4JWdzelT5IVzxTuJcsom-14" value="&lt;u&gt;employeeId&lt;/u&gt;" style="ellipse;whiteSpace=wrap;html=1;" parent="1" vertex="1">
          <mxGeometry x="620" y="20" width="120" height="80" as="geometry" />
        </mxCell>
        <mxCell id="4JWdzelT5IVzxTuJcsom-15" value="name" style="ellipse;whiteSpace=wrap;html=1;" parent="1" vertex="1">
          <mxGeometry x="810" y="-80" width="120" height="80" as="geometry" />
        </mxCell>
        <mxCell id="4JWdzelT5IVzxTuJcsom-16" value="sex" style="ellipse;whiteSpace=wrap;html=1;" parent="1" vertex="1">
          <mxGeometry x="800" y="330" width="120" height="80" as="geometry" />
        </mxCell>
        <mxCell id="4JWdzelT5IVzxTuJcsom-17" value="address" style="ellipse;whiteSpace=wrap;html=1;" parent="1" vertex="1">
          <mxGeometry x="800" y="230" width="120" height="80" as="geometry" />
        </mxCell>
        <mxCell id="4JWdzelT5IVzxTuJcsom-18" value="phone" style="ellipse;whiteSpace=wrap;html=1;" parent="1" vertex="1">
          <mxGeometry x="800" y="130" width="120" height="80" as="geometry" />
        </mxCell>
        <mxCell id="4JWdzelT5IVzxTuJcsom-19" value="status" style="ellipse;whiteSpace=wrap;html=1;" parent="1" vertex="1">
          <mxGeometry x="800" y="20" width="120" height="80" as="geometry" />
        </mxCell>
        <mxCell id="4JWdzelT5IVzxTuJcsom-20" value="dateOfBirth" style="ellipse;whiteSpace=wrap;html=1;" parent="1" vertex="1">
          <mxGeometry x="800" y="440" width="120" height="80" as="geometry" />
        </mxCell>
        <mxCell id="qNfTHY0BZm8D7WxXNAAQ-18" style="rounded=0;orthogonalLoop=1;jettySize=auto;html=1;exitX=0;exitY=0.5;exitDx=0;exitDy=0;entryX=0.623;entryY=0;entryDx=0;entryDy=0;entryPerimeter=0;endArrow=none;endFill=0;" edge="1" parent="1" source="4JWdzelT5IVzxTuJcsom-15" target="4JWdzelT5IVzxTuJcsom-2">
          <mxGeometry relative="1" as="geometry" />
        </mxCell>
        <mxCell id="qNfTHY0BZm8D7WxXNAAQ-20" style="rounded=0;orthogonalLoop=1;jettySize=auto;html=1;exitX=0;exitY=0.5;exitDx=0;exitDy=0;entryX=0.897;entryY=1;entryDx=0;entryDy=0;entryPerimeter=0;endArrow=none;endFill=0;" edge="1" parent="1" source="4JWdzelT5IVzxTuJcsom-20" target="4JWdzelT5IVzxTuJcsom-2">
          <mxGeometry relative="1" as="geometry" />
        </mxCell>
      </root>
    </mxGraphModel>
  </diagram>
</mxfile>
